<svg xmlns="http://www.w3.org/2000/svg" viewBox="0 0 38.99 26.02"><defs><style>.a{fill:#777;}</style></defs><title>i-email</title><path class="a" d="M310.12,407.49H285.88a7.46,7.46,0,0,0-7.38,7.56V426a7.46,7.46,0,0,0,7.38,7.55h24.23a7.47,7.47,0,0,0,7.38-7.55V415A7.47,7.47,0,0,0,310.12,407.49Zm5.66,22.19a.8.8,0,0,1-.56.27h0a.78.78,0,0,1-.54-.22l-10.26-9.57-5.86,5a.78.78,0,0,1-.52.19.8.8,0,0,1-.53-.19l-5.84-5-9.8,9.13a.82.82,0,0,1-.56.22h0a.81.81,0,0,1-.57-.28.83.83,0,0,1-.21-.56v0a.88.88,0,0,1,.27-.58l9.64-9-8.9-7.61a.85.85,0,0,1-.1-1.17.8.8,0,0,1,1.15-.11l.75.64L298,423.45l14.75-12.6.75-.65a.81.81,0,0,1,1.15.11.86.86,0,0,1-.1,1.18l-8.91,7.61,10.1,9.41a.83.83,0,0,1,.26.58v0A.83.83,0,0,1,315.78,429.68Z" transform="translate(-278.51 -407.49)"/></svg>